<?xml version="1.0" encoding="UTF-8"?>
<svg version="1.1" xmlns="http://www.w3.org/2000/svg" width="1024" height="1024">
<path d="M0 0 C337.92 0 675.84 0 1024 0 C1024 337.92 1024 675.84 1024 1024 C686.08 1024 348.16 1024 0 1024 C0 686.08 0 348.16 0 0 Z " fill="#F6F6F7" transform="translate(0,0)"/>
<path d="M0 0 C1.25296875 0.2784375 2.5059375 0.556875 3.796875 0.84375 C29.84403121 7.21815954 54.45519129 19.78135651 74.01171875 38.1875 C76.07099988 40.15610321 76.07099988 40.15610321 79 42 C79 42.66 79 43.32 79 44 C79.66 44 80.32 44 81 44 C82.50244141 45.46875 82.50244141 45.46875 84.2265625 47.5 C84.84950195 48.23347656 85.47244141 48.96695313 86.11425781 49.72265625 C95.32119551 60.84154735 103.46623673 72.1044146 110 85 C110.32194336 85.63147949 110.64388672 86.26295898 110.97558594 86.91357422 C123.2324083 111.2578565 128.22620398 137.34359948 128.125 164.5 C128.12886719 165.53769531 128.13273438 166.57539063 128.13671875 167.64453125 C128.12779796 174.80792283 127.69913005 181.87174007 127 189 C128.13610718 188.56856689 128.13610718 188.56856689 129.29516602 188.12841797 C151.53268905 179.68378897 176.44320972 180.40063076 198.29296875 189.796875 C211.09376534 195.65160692 221.91192899 204.25564521 232 214 C232.66386719 214.63808594 233.32773437 215.27617187 234.01171875 215.93359375 C257.1626308 240.02369087 263.5642743 272.47179586 263.21484375 304.60546875 C263.05079892 312.73536728 262.12810848 320.12772881 260 328 C259.67914194 329.33059773 259.35885074 330.66133225 259.0390625 331.9921875 C254.848082 348.46254774 247.17849694 364.40068863 237 378 C236.17048828 379.16015625 236.17048828 379.16015625 235.32421875 380.34375 C224.81351776 394.32694422 211.56910885 406.3960565 197 416 C195.92363281 416.71414063 194.84726562 417.42828125 193.73828125 418.1640625 C186.52500546 422.759975 179.02028362 426.60842037 171.3359375 430.3359375 C167.97923764 431.92358932 167.97923764 431.92358932 165 434 C165.86238281 434.24492188 166.72476563 434.48984375 167.61328125 434.7421875 C184.51553006 439.91816654 199.1449284 447.84577878 212 460 C212.74378906 460.65355469 213.48757813 461.30710937 214.25390625 461.98046875 C228.60122571 475.14855647 238.0309438 496.48159244 239.15966797 515.72167969 C240.52987016 550.16435553 230.43399775 578.8458865 207.3125 604.5625 C196.84393646 615.8309314 184.68493696 624.1008996 171 631 C170.36900391 631.31952637 169.73800781 631.63905273 169.08789062 631.96826172 C160.97019457 635.99135824 152.65883674 638.87806248 143.9375 641.3125 C143.07624512 641.55508545 142.21499023 641.7976709 141.32763672 642.04760742 C128.14962607 645.53112379 114.98734241 646.38583969 101.4375 646.3125 C100.69644012 646.31001251 99.95538025 646.30752502 99.19186401 646.30496216 C61.68298508 646.11134004 25.68153187 635.16220028 -8 619 C-8.90008789 618.56848633 -9.80017578 618.13697266 -10.72753906 617.69238281 C-39.20646493 603.93634366 -65.73657376 587.56678563 -92 570 C-93.96461878 568.68976677 -95.92946175 567.37986965 -97.89453125 566.0703125 C-98.86173096 565.42545898 -99.82893066 564.78060547 -100.82543945 564.11621094 C-102.87976549 562.74677218 -104.93430208 561.37764926 -106.98901367 560.00878906 C-115.86199626 554.09665914 -115.86199626 554.09665914 -120.21875 551.1640625 C-143.80007204 535.3012884 -168.1995212 520.01877331 -194 508 C-194.68078613 507.67628418 -195.36157227 507.35256836 -196.06298828 507.01904297 C-248.38769345 482.23490159 -302.78813117 481.88665923 -357.12890625 500.828125 C-365.99366692 504.03264075 -374.51463715 507.90980005 -383 512 C-384.02649658 512.48654053 -384.02649658 512.48654053 -385.07373047 512.98291016 C-401.35705791 520.71799141 -417.2520329 529.62320872 -432 540 C-433.40624289 540.98178101 -434.8124935 541.96355098 -436.21875 542.9453125 C-439.12385148 544.98125964 -442.02673607 547.02021887 -444.921875 549.0703125 C-445.81277832 549.70090576 -445.81277832 549.70090576 -446.72167969 550.34423828 C-450.17782223 552.85597839 -453.58673587 555.43042402 -457 558 C-457.39885852 551.95422535 -457.68720347 545.91624235 -457.87890625 539.86035156 C-457.95885181 537.80691113 -458.06767368 535.754367 -458.20703125 533.70410156 C-459.3009871 517.18215065 -459.3009871 517.18215065 -455.49575806 511.91970825 C-451.79945632 508.28295721 -447.60268257 505.64634476 -443.07279968 503.16665649 C-440.37479028 501.64810638 -437.87726183 499.90153444 -435.35476685 498.11088562 C-426.3260837 491.75669762 -416.62147811 486.38818955 -407 481 C-405.95271729 480.40638672 -405.95271729 480.40638672 -404.88427734 479.80078125 C-366.08438964 457.91222847 -321.58063416 445.79031258 -277.0625 445.75 C-276.28787415 445.74899292 -275.51324829 445.74798584 -274.71514893 445.74694824 C-262.56521938 445.7576091 -250.91073888 446.44435476 -239 449 C-237.9488501 449.20882812 -237.9488501 449.20882812 -236.87646484 449.421875 C-218.30108859 453.12751459 -200.69276297 459.67390301 -183.61279297 467.765625 C-180.89683096 469.04874067 -178.16991788 470.30631576 -175.44140625 471.5625 C-139.56793281 488.22340189 -106.54890236 510.2622609 -73.73022461 532.18383789 C-60.34286812 541.11992811 -46.88066787 549.84855592 -33 558 C-32.27586914 558.42780762 -31.55173828 558.85561523 -30.80566406 559.29638672 C16.16300451 587.01249225 75.99979748 616.72968444 132.18164062 602.4453125 C155.29734762 596.00551107 174.5486728 584.07735056 186.77734375 562.92578125 C189.97899338 556.81211778 192.31630616 550.68632373 194 544 C194.17200928 543.37681885 194.34401855 542.7536377 194.52124023 542.11157227 C196.77588094 532.16746852 195.47716629 520.44453027 192 511 C191.75636719 510.19820312 191.51273438 509.39640625 191.26171875 508.5703125 C187.28723784 496.7787246 178.71341623 487.08317673 168 481 C167.06285156 480.45730469 166.12570312 479.91460938 165.16015625 479.35546875 C153.13285786 472.85977934 140.01601961 469.89153606 126.5625 473.125 C116.20414325 476.29622796 106.76785171 480.75571188 100.69140625 489.98828125 C97.33361549 496.34368453 97.09276526 502.95558909 98 510 C98.99681582 512.94386728 100.33976211 515.38845791 102 518 C102.33902344 518.71027344 102.67804687 519.42054688 103.02734375 520.15234375 C104.31835108 522.6047392 105.46478609 522.90369128 108 524 C108.928125 524.70125 109.85625 525.4025 110.8125 526.125 C117.18100789 529.79755206 126.05251704 528.90776546 132.97265625 527.31640625 C135.0158736 526.63965122 137.01629155 525.83524566 139 525 C141.08947498 530.8885204 138.35449305 535.99935299 135.9296875 541.37109375 C131.2669097 550.52681307 124.33952477 555.07333213 115 559 C103.79691468 562.28992323 88.27638398 561.38214176 78 556 C65.56289414 548.83771004 58.05597172 538.02048698 53.921875 524.46484375 C50.87278649 511.82682675 51.31234132 495.71197005 57 484 C57.63615234 482.52080078 57.63615234 482.52080078 58.28515625 481.01171875 C61.7139242 473.49517175 66.18981061 466.8987256 72 461 C72.99 460.67 73.98 460.34 75 460 C74.67 459.67 74.34 459.34 74 459 C72.47055134 459.12774307 70.94732202 459.32986475 69.4296875 459.55859375 C37.43106709 463.93044674 3.91183563 464.04873817 -28 459 C-29.33627614 458.79832241 -30.67271056 458.59769159 -32.00927734 458.39794922 C-73.15600003 452.21191584 -113.37810436 442.719529 -153 430 C-154.2375 429.60723877 -154.2375 429.60723877 -155.5 429.20654297 C-166.717286 425.60876902 -177.52669024 421.14640441 -188.36941528 416.56686401 C-248.72913466 391.10121703 -306.79050515 387.35453043 -368.5625 411.6875 C-397.30421893 423.39658919 -424.37893818 438.88365179 -448.48535156 458.47265625 C-451.22496569 460.68675209 -453.82217846 462.49509766 -457 464 C-457.29844056 457.77483594 -457.51517383 451.55389577 -457.65917969 445.32324219 C-457.71923912 443.20824619 -457.80092234 441.09374253 -457.90527344 438.98046875 C-458.79523462 420.48323634 -458.79523462 420.48323634 -454.5324707 415.5012207 C-451.65775547 412.83347682 -448.42011143 410.90849865 -445 409 C-443.68170526 408.0643009 -442.37105486 407.11756391 -441.07421875 406.15234375 C-439.95093556 405.40553493 -438.82204579 404.66708508 -437.6875 403.9375 C-436.74487305 403.32237549 -436.74487305 403.32237549 -435.78320312 402.69482422 C-433.86301068 401.45091092 -431.93377334 400.22267282 -430 399 C-429.41943848 398.63052246 -428.83887695 398.26104492 -428.24072266 397.88037109 C-370.33472982 361.29692541 -297.9046678 342.62229599 -230.0390625 357.75390625 C-214.05786608 361.57305678 -198.74229974 367.47514101 -183.4765625 373.47265625 C-108.92074729 402.69542182 -28.87540737 424.03480371 61.86767578 417.26904297 C64.82585579 417.01495767 67.78396791 416.79972455 70.74609375 416.59765625 C84.75650474 415.58313071 98.30846986 413.10014215 112 410 C112.87317871 409.80535156 113.74635742 409.61070312 114.64599609 409.41015625 C149.94388959 401.38318968 184.81415473 381.75741479 204.82275391 350.90039062 C212.91448863 337.83816269 219.65739875 322.55409664 220 307 C220.07541016 305.23462891 220.07541016 305.23462891 220.15234375 303.43359375 C220.71817138 280.27992721 214.47348724 258.49607238 198.34765625 241.3203125 C185.83847765 228.95683149 169.35750644 222.68962599 151.8125 222.5 C144.309471 222.58941598 137.86845075 223.84581875 131 227 C130.06800781 227.42410156 129.13601563 227.84820312 128.17578125 228.28515625 C113.84821125 235.45893258 101.75968893 248.89216556 96.25390625 264.0546875 C93.29542567 274.54199109 95.59797171 282.59172393 100.578125 291.97265625 C104.02880808 297.74711014 107.20105762 301.56797288 113 305 C113.07476563 304.32195312 113.14953125 303.64390625 113.2265625 302.9453125 C114.58169473 293.35310199 118.25067002 285.38030923 126.0078125 279.3125 C136.83668464 272.17818424 147.90498387 270.4075879 160.69921875 272.42578125 C167.71613901 274.42186851 173.45997378 279.13970231 177.3125 285.3125 C182.70257354 296.11660296 183.62217451 307.10636588 180.375 318.75 C178.41022765 324.50546387 175.76421421 329.24380464 172 334 C171.25105469 334.97710938 170.50210938 335.95421875 169.73046875 336.9609375 C166.97919085 340.2321014 163.86185762 342.44388975 160.25 344.6875 C159.63382813 345.07615234 159.01765625 345.46480469 158.3828125 345.86523438 C145.14999602 353.99040516 127.64075699 355.49258763 112.55859375 352.1640625 C91.23730613 346.43335884 73.9231296 331.25729219 62 313 C62 312.34 62 311.68 62 311 C61.175 311.60585938 60.35 312.21171875 59.5 312.8359375 C38.36524606 328.22839525 16.15026093 341.40231458 -9 349 C-10.17079102 349.35916504 -10.17079102 349.35916504 -11.36523438 349.72558594 C-41.57084264 358.82259662 -76.06058808 360.57711637 -107 354 C-108.46904785 353.69400879 -108.46904785 353.69400879 -109.96777344 353.38183594 C-135.69284197 347.90179808 -158.65374125 338.26678063 -182.51855469 327.39746094 C-196.81330901 320.90129368 -211.02295113 314.7495853 -226 310 C-227.18851563 309.61457031 -228.37703125 309.22914063 -229.6015625 308.83203125 C-233.04752276 307.77887478 -236.5039613 306.87213813 -240 306 C-240.65194336 305.81808105 -241.30388672 305.63616211 -241.97558594 305.44873047 C-269.32082739 297.96390385 -301.53407466 300.35446013 -329 306 C-329.90443848 306.17660156 -330.80887695 306.35320312 -331.74072266 306.53515625 C-375.39417305 315.20962293 -415.66975281 336.51471511 -450.328125 364.00390625 C-452.5225265 365.64329099 -454.50609639 366.90149484 -457 368 C-458.43566855 360.51198862 -458.52396554 352.98102397 -458.6796875 345.37915039 C-458.72644035 343.58939292 -458.79469976 341.80006405 -458.88476562 340.01196289 C-459.61636228 325.19303592 -459.61636228 325.19303592 -455.73974609 319.93334961 C-452.9402859 317.61785011 -450.15808364 315.78671073 -447 314 C-445.7848611 313.13150654 -444.57726745 312.25219658 -443.3828125 311.35546875 C-407.95095257 287.77671304 -369.86678352 271.11702946 -328 263 C-326.52660156 262.71189453 -326.52660156 262.71189453 -325.0234375 262.41796875 C-296.44359889 257.14478726 -264.34795737 257.82111176 -236 264 C-234.8560376 264.24024902 -234.8560376 264.24024902 -233.68896484 264.48535156 C-229.06860115 265.47565477 -224.538768 266.6787039 -220 268 C-218.93386475 268.30478271 -218.93386475 268.30478271 -217.84619141 268.61572266 C-199.24812574 273.98617983 -181.67903235 281.74864928 -164.0625 289.6875 C-146.63579217 297.53312305 -129.54813822 304.22928382 -111 309 C-110.10909668 309.23025879 -109.21819336 309.46051758 -108.30029297 309.69775391 C-81.51898721 316.2678986 -50.43492824 315.50078075 -24 308 C-23.09733398 307.75362793 -22.19466797 307.50725586 -21.26464844 307.25341797 C14.83602539 297.16474317 45.27964276 274.45382503 63.90234375 241.8828125 C83.02597964 207.20972462 88.89627676 164.12815359 78.1796875 125.859375 C69.48957024 96.69692415 50.57411105 72.00443008 23.9453125 57.06640625 C-3.5816979 42.31143294 -35.50173533 38.53937099 -65.57714844 47.25146484 C-90.23102514 54.86823086 -111.32631327 70.33488828 -124 93 C-130.66096078 106.2151326 -133.58076367 120.04910543 -133.5 134.8125 C-133.49427979 136.03718994 -133.48855957 137.26187988 -133.48266602 138.52368164 C-133.29174942 148.23214418 -132.02061216 156.13429572 -128 165 C-127.48050781 166.15371094 -126.96101563 167.30742187 -126.42578125 168.49609375 C-122.67321884 176.06244919 -117.99489853 182.08652623 -112 188 C-111.31292969 188.69738281 -110.62585938 189.39476562 -109.91796875 190.11328125 C-95.21724796 204.15942449 -77.06887215 209.56847129 -57.16796875 209.27734375 C-45.03433729 208.8307479 -34.28702123 204.46697498 -25.125 196.5 C-18.32317425 188.49785206 -17.44557873 182.1212333 -17.66015625 171.9375 C-18.10393953 166.79573508 -19.25183418 163.55981578 -23 160 C-25.30445948 158.23146133 -27.30055316 157.23132663 -30 156 C-30.886875 155.5875 -31.77375 155.175 -32.6875 154.75 C-43.5335861 152.29428239 -51.82824392 154.6855384 -61.375 159.8125 C-64.32917255 161.14891139 -65.03757248 160.92654648 -68 160 C-67.16989346 146.54654914 -63.72512487 136.16116021 -53.75 126.75 C-41.66953658 116.62254483 -26.48496648 113.61093148 -11.02636719 114.74560547 C1.13116609 116.27188856 13.37131063 124.03759638 21.0859375 133.35546875 C27.2509389 141.87323599 32.0292048 150.57595929 34 161 C34.27457031 162.38832031 34.27457031 162.38832031 34.5546875 163.8046875 C37.22004577 182.92980214 33.37111231 201.27363168 22.6875 217.375 C8.39651021 236.25048872 -11.31075977 245.9665508 -34 251 C-34.64106689 251.17273438 -35.28213379 251.34546875 -35.94262695 251.5234375 C-65.56171417 258.38429643 -98.68856207 247.7778089 -123.79858398 232.42456055 C-129.59705338 228.74761645 -134.899782 224.59881408 -140 220 C-140.82886719 219.25363281 -141.65773438 218.50726563 -142.51171875 217.73828125 C-164.7800456 196.58861446 -178.19565133 167.13424577 -179.23828125 136.51171875 C-179.9391118 99.7385427 -167.42861467 67.09226777 -141.89794922 40.5 C-134.48553834 32.95496149 -127.08364962 26.48383292 -118 21 C-116.34097656 19.97712891 -116.34097656 19.97712891 -114.6484375 18.93359375 C-80.80266898 -1.44494972 -38.67420014 -8.92777556 0 0 Z " fill="#57BAED" transform="translate(619,194)"/>
<path d="M0 0 C0.66 0.33 1.32 0.66 2 1 C0.2421875 1.94401042 -1.515625 2.88802083 -3.2734375 3.83203125 C-5.30502365 5.04763493 -5.30502365 5.04763493 -7 8 C-10.125 9.1875 -10.125 9.1875 -13 10 C-9.75458573 5.06132612 -5.42018581 2.19737263 0 0 Z " fill="#3CB1EC" transform="translate(576,314)"/>
<path d="M0 0 C0.66 1.32 1.32 2.64 2 4 C2.99 4 3.98 4 5 4 C3.71034824 5.37562854 2.37310707 6.70766393 1 8 C0.34 8 -0.32 8 -1 8 C-0.67 5.36 -0.34 2.72 0 0 Z " fill="#4AB4EA" transform="translate(163,650)"/>
<path d="M0 0 C0.99 0.33 1.98 0.66 3 1 C1.35 2.65 -0.3 4.3 -2 6 C-2.99 5.67 -3.98 5.34 -5 5 C-3.35 3.35 -1.7 1.7 0 0 Z " fill="#E9F3F6" transform="translate(733,431)"/>
<path d="M0 0 C0.66 0.33 1.32 0.66 2 1 C0.68 2.32 -0.64 3.64 -2 5 C-2.99 4.34 -3.98 3.68 -5 3 C-2.625 1.4375 -2.625 1.4375 0 0 Z M-4 5 C-2 6 -2 6 -2 6 Z " fill="#49B5EC" transform="translate(773,788)"/>
<path d="M0 0 C0.33 0.66 0.66 1.32 1 2 C-1.475 3.485 -1.475 3.485 -4 5 C-4 4.01 -4 3.02 -4 2 C-5.65 2 -7.3 2 -9 2 C-9 1.67 -9 1.34 -9 1 C-4.545 0.505 -4.545 0.505 0 0 Z " fill="#D7EBF6" transform="translate(693,652)"/>
</svg>
